<svg width="30" height="20" viewBox="0 0 30 20" fill="none" xmlns="http://www.w3.org/2000/svg">
<path fill-rule="evenodd" clip-rule="evenodd" d="M28.433 6.28764C28.4376 6.36938 28.4316 6.45238 28.4112 6.53582L26.5855 13.8681C26.4934 14.2371 26.1637 14.4973 25.7846 14.4995L14.8307 14.5549C14.8293 14.5549 14.828 14.5549 14.8265 14.5549H3.87255C3.49143 14.5549 3.15939 14.2939 3.0674 13.9227L1.24172 6.56247C1.22064 6.47731 1.21462 6.39173 1.21993 6.30787C0.513655 6.08467 0 5.42106 0 4.63918C0 3.67369 0.781697 2.88879 1.74264 2.88879C2.70359 2.88879 3.48529 3.67369 3.48529 4.63918C3.48529 5.18236 3.23731 5.66836 2.84905 5.99004L5.13475 8.30212C5.7125 8.88657 6.51407 9.22203 7.33413 9.22203C8.30388 9.22203 9.22841 8.75929 9.81063 7.98471L13.5671 2.98684C13.2515 2.67031 13.0561 2.23292 13.0561 1.7504C13.0561 0.785303 13.8378 0 14.7987 0C15.7597 0 16.5414 0.785303 16.5414 1.7504C16.5414 2.21832 16.3564 2.64279 16.0573 2.95717C16.0583 2.95847 16.0596 2.95976 16.0605 2.96104L19.7897 7.97268C20.3718 8.75456 21.2996 9.22203 22.2721 9.22203C23.0997 9.22203 23.878 8.8982 24.4632 8.31072L26.7633 6.00079C26.3669 5.67953 26.1122 5.18926 26.1122 4.63918C26.1122 3.67369 26.894 2.88879 27.8549 2.88879C28.8158 2.88879 29.5976 3.67369 29.5976 4.63918C29.5976 5.39998 29.1101 6.04767 28.433 6.28764ZM26.4074 17.1654C26.4074 16.7056 26.0358 16.3323 25.5775 16.3323H4.11233C3.65403 16.3323 3.28244 16.7056 3.28244 17.1654V19.1652C3.28244 19.6258 3.65403 19.9987 4.11233 19.9987H25.5775C26.0358 19.9987 26.4074 19.6258 26.4074 19.1652V17.1654Z" fill="#02073E"/>
</svg>
