<svg width="333" height="33" viewBox="0 0 333 33" fill="none" xmlns="http://www.w3.org/2000/svg">
<path d="M126.606 13.4858H123.186V23H121.779V13.4858H118.366V12.3359H123.186H126.606V13.4858ZM130.729 14.9287C130.817 14.9287 130.927 14.9409 131.059 14.9653C131.191 14.9849 131.281 15.0068 131.33 15.0312V16.2837C131.12 16.2446 130.898 16.2251 130.664 16.2251C130.214 16.2251 129.838 16.3252 129.536 16.5254C129.238 16.7256 129.013 17.0063 128.862 17.3677V23H127.492V15.0752H128.825L128.854 15.9761C129.06 15.644 129.318 15.3877 129.631 15.207C129.943 15.0215 130.31 14.9287 130.729 14.9287ZM138.793 15.0752V23H137.49L137.468 22.2163C136.94 22.8364 136.167 23.1465 135.146 23.1465C134.331 23.1465 133.693 22.9072 133.234 22.4287C132.775 21.9502 132.546 21.2031 132.546 20.1875V15.0752H133.916V20.2021C133.916 20.8613 134.05 21.3276 134.318 21.6011C134.592 21.8696 134.941 22.0039 135.366 22.0039C136.391 22.0039 137.077 21.6206 137.424 20.854V15.0752H138.793ZM143.649 19.521C142.707 19.3257 141.994 19.0522 141.511 18.7007C141.032 18.3491 140.793 17.8633 140.793 17.2432C140.793 16.8232 140.915 16.4375 141.159 16.0859C141.403 15.7344 141.748 15.4536 142.192 15.2437C142.641 15.0337 143.154 14.9287 143.73 14.9287C144.345 14.9287 144.882 15.0386 145.341 15.2583C145.8 15.478 146.149 15.7759 146.389 16.1519C146.633 16.5229 146.755 16.938 146.755 17.397H145.385C145.385 17.1724 145.319 16.9551 145.188 16.7451C145.056 16.5352 144.863 16.3643 144.609 16.2324C144.36 16.0957 144.067 16.0273 143.73 16.0273C143.374 16.0273 143.078 16.0835 142.844 16.1958C142.609 16.3032 142.436 16.4473 142.324 16.6279C142.216 16.8037 142.163 16.9941 142.163 17.1992C142.163 17.4092 142.211 17.585 142.309 17.7266C142.412 17.8633 142.592 17.9878 142.851 18.1001C143.115 18.2124 143.493 18.3223 143.986 18.4297C144.65 18.5811 145.19 18.7593 145.605 18.9644C146.02 19.1694 146.328 19.4209 146.528 19.7188C146.733 20.0166 146.835 20.3779 146.835 20.8027C146.835 21.2617 146.708 21.6694 146.455 22.0259C146.201 22.3774 145.842 22.6533 145.378 22.8535C144.914 23.0488 144.377 23.1465 143.767 23.1465C143.093 23.1465 142.509 23.0269 142.016 22.7876C141.528 22.5435 141.157 22.2236 140.903 21.8281C140.649 21.4326 140.522 21.0103 140.522 20.561H141.892C141.911 20.9126 142.014 21.2007 142.199 21.4253C142.385 21.645 142.614 21.8037 142.888 21.9014C143.166 21.999 143.459 22.0479 143.767 22.0479C144.123 22.0479 144.428 21.999 144.682 21.9014C144.941 21.7988 145.136 21.6621 145.268 21.4912C145.4 21.3154 145.466 21.1177 145.466 20.8979C145.466 20.6782 145.419 20.4878 145.327 20.3267C145.234 20.1655 145.056 20.0166 144.792 19.8799C144.528 19.7432 144.147 19.6235 143.649 19.521ZM154.987 19.4111H149.626C149.641 19.9043 149.743 20.3511 149.934 20.7515C150.124 21.1519 150.393 21.4692 150.739 21.7036C151.091 21.9331 151.501 22.0479 151.97 22.0479C152.429 22.0479 152.824 21.9551 153.156 21.7695C153.493 21.584 153.793 21.3179 154.057 20.9712L154.885 21.6157C154.592 22.0649 154.201 22.4336 153.713 22.7217C153.225 23.0049 152.619 23.1465 151.896 23.1465C151.174 23.1465 150.537 22.9829 149.985 22.6558C149.433 22.3286 149.006 21.8745 148.703 21.2935C148.405 20.7124 148.256 20.0532 148.256 19.3159V19.001C148.256 18.1758 148.417 17.4556 148.74 16.8403C149.062 16.2202 149.487 15.7466 150.014 15.4194C150.546 15.0923 151.115 14.9287 151.721 14.9287C152.458 14.9287 153.068 15.0947 153.552 15.4268C154.04 15.7539 154.401 16.208 154.636 16.7891C154.87 17.3701 154.987 18.0415 154.987 18.8032V19.4111ZM153.618 18.21C153.579 17.5898 153.41 17.0723 153.112 16.6572C152.819 16.2373 152.355 16.0273 151.721 16.0273C151.174 16.0273 150.717 16.2275 150.351 16.6279C149.99 17.0234 149.763 17.585 149.67 18.3125H153.618V18.21ZM162.934 11.75V23H161.682L161.616 22.1577C161.079 22.8169 160.327 23.1465 159.36 23.1465C158.75 23.1465 158.208 22.9731 157.734 22.6265C157.26 22.2798 156.892 21.8013 156.628 21.1909C156.369 20.5806 156.24 19.8921 156.24 19.1255V18.9717C156.24 18.1709 156.369 17.4653 156.628 16.855C156.887 16.2446 157.253 15.771 157.727 15.4341C158.2 15.0972 158.75 14.9287 159.375 14.9287C160.307 14.9287 161.037 15.2388 161.564 15.8589V11.75H162.934ZM159.697 22.0039C160.542 22.0039 161.164 21.6206 161.564 20.854V17.1846C161.379 16.8379 161.132 16.5645 160.825 16.3643C160.522 16.1641 160.151 16.064 159.711 16.064C159.238 16.064 158.842 16.1934 158.525 16.4521C158.212 16.7061 157.98 17.0527 157.829 17.4922C157.683 17.9316 157.609 18.4248 157.609 18.9717V19.1255C157.609 19.6724 157.683 20.1631 157.829 20.5977C157.98 21.0273 158.212 21.3691 158.525 21.623C158.837 21.877 159.228 22.0039 159.697 22.0039ZM172.382 14.9287C173.032 14.9287 173.588 15.0972 174.052 15.4341C174.516 15.7661 174.868 16.2373 175.107 16.8477C175.351 17.4531 175.473 18.1611 175.473 18.9717V19.1255C175.473 19.9019 175.351 20.5952 175.107 21.2056C174.868 21.811 174.516 22.2871 174.052 22.6338C173.588 22.9756 173.037 23.1465 172.397 23.1465C171.396 23.1465 170.622 22.7974 170.075 22.0991L170.009 23H168.757V11.75H170.126V15.9248C170.668 15.2607 171.42 14.9287 172.382 14.9287ZM174.104 18.9717C174.104 18.1025 173.938 17.4019 173.605 16.8696C173.278 16.3325 172.756 16.064 172.038 16.064C171.574 16.064 171.184 16.1763 170.866 16.4009C170.554 16.6206 170.307 16.9209 170.126 17.3018V20.7661C170.312 21.1421 170.563 21.4424 170.881 21.667C171.203 21.8916 171.594 22.0039 172.053 22.0039C172.741 22.0039 173.254 21.7378 173.591 21.2056C173.933 20.6685 174.104 19.9751 174.104 19.1255V18.9717ZM183.068 15.0752L179.89 24.2231C179.694 24.7554 179.411 25.2168 179.04 25.6074C178.674 26.0029 178.173 26.2007 177.539 26.2007C177.436 26.2007 177.302 26.186 177.136 26.1567C176.975 26.1323 176.853 26.1079 176.77 26.0835V24.9922C176.823 25.002 176.884 25.0093 176.953 25.0142C177.021 25.0239 177.082 25.0288 177.136 25.0288C177.6 25.0288 177.958 24.9312 178.212 24.7358C178.471 24.5454 178.681 24.2085 178.842 23.7251L179.143 22.9121L176.315 15.0752H177.81L179.772 21.0078L181.611 15.0752H183.068ZM187.653 18.957C187.653 18.1904 187.8 17.502 188.093 16.8916C188.386 16.2812 188.803 15.8027 189.345 15.4561C189.892 15.1045 190.527 14.9287 191.25 14.9287C191.982 14.9287 192.622 15.1045 193.168 15.4561C193.715 15.8027 194.135 16.2812 194.428 16.8916C194.721 17.502 194.868 18.1904 194.868 18.957V19.1255C194.868 19.8921 194.721 20.5806 194.428 21.1909C194.135 21.7964 193.715 22.2749 193.168 22.6265C192.626 22.9731 191.992 23.1465 191.264 23.1465C190.537 23.1465 189.899 22.9731 189.353 22.6265C188.811 22.2749 188.391 21.7964 188.093 21.1909C187.8 20.5806 187.653 19.8921 187.653 19.1255V18.957ZM189.023 19.1255C189.023 19.6626 189.106 20.1533 189.272 20.5977C189.443 21.042 189.697 21.396 190.034 21.6597C190.371 21.9185 190.781 22.0479 191.264 22.0479C191.743 22.0479 192.15 21.9185 192.487 21.6597C192.824 21.396 193.076 21.042 193.242 20.5977C193.413 20.1533 193.498 19.6626 193.498 19.1255V18.957C193.498 18.4199 193.413 17.9292 193.242 17.4849C193.071 17.0405 192.817 16.6865 192.48 16.4229C192.143 16.1592 191.733 16.0273 191.25 16.0273C190.771 16.0273 190.363 16.1592 190.026 16.4229C189.694 16.6865 189.443 17.0405 189.272 17.4849C189.106 17.9292 189.023 18.4199 189.023 18.957V19.1255ZM202.426 15.0752L199.584 23H198.662H198.544L195.673 15.0752H197.072L199.079 21.147L201.027 15.0752H202.426ZM210.124 19.4111H204.763C204.777 19.9043 204.88 20.3511 205.07 20.7515C205.261 21.1519 205.529 21.4692 205.876 21.7036C206.228 21.9331 206.638 22.0479 207.106 22.0479C207.565 22.0479 207.961 21.9551 208.293 21.7695C208.63 21.584 208.93 21.3179 209.194 20.9712L210.021 21.6157C209.729 22.0649 209.338 22.4336 208.85 22.7217C208.361 23.0049 207.756 23.1465 207.033 23.1465C206.311 23.1465 205.673 22.9829 205.122 22.6558C204.57 22.3286 204.143 21.8745 203.84 21.2935C203.542 20.7124 203.393 20.0532 203.393 19.3159V19.001C203.393 18.1758 203.554 17.4556 203.876 16.8403C204.199 16.2202 204.624 15.7466 205.151 15.4194C205.683 15.0923 206.252 14.9287 206.857 14.9287C207.595 14.9287 208.205 15.0947 208.688 15.4268C209.177 15.7539 209.538 16.208 209.772 16.7891C210.007 17.3701 210.124 18.0415 210.124 18.8032V19.4111ZM208.754 18.21C208.715 17.5898 208.547 17.0723 208.249 16.6572C207.956 16.2373 207.492 16.0273 206.857 16.0273C206.311 16.0273 205.854 16.2275 205.488 16.6279C205.126 17.0234 204.899 17.585 204.807 18.3125H208.754V18.21ZM214.943 14.9287C215.031 14.9287 215.141 14.9409 215.273 14.9653C215.405 14.9849 215.495 15.0068 215.544 15.0312V16.2837C215.334 16.2446 215.112 16.2251 214.877 16.2251C214.428 16.2251 214.052 16.3252 213.75 16.5254C213.452 16.7256 213.227 17.0063 213.076 17.3677V23H211.706V15.0752H213.039L213.068 15.9761C213.273 15.644 213.532 15.3877 213.845 15.207C214.157 15.0215 214.523 14.9287 214.943 14.9287ZM227.578 20.5171H226.098V23H224.729V20.5171H219.873V19.7261L224.641 12.3359H225.754H226.098V19.4185H227.578V20.5171ZM224.729 19.4185V14.1816L224.567 14.4673L221.418 19.4185H224.729ZM230.192 22.48C230.192 22.9438 230.078 23.4199 229.848 23.9082C229.619 24.3965 229.304 24.8018 228.903 25.124L228.127 24.5967C228.366 24.2598 228.547 23.9229 228.669 23.5859C228.791 23.249 228.852 22.8877 228.852 22.502V21.396H230.192V22.48ZM236.499 17.5215C237.153 17.7314 237.622 18.0635 237.905 18.5176C238.193 18.9668 238.337 19.4697 238.337 20.0264C238.337 20.6758 238.19 21.2349 237.897 21.7036C237.604 22.1724 237.202 22.5312 236.689 22.7803C236.181 23.0244 235.605 23.1465 234.96 23.1465C234.331 23.1465 233.759 23.0293 233.247 22.7949C232.734 22.5605 232.326 22.2212 232.023 21.7769C231.726 21.3276 231.577 20.7954 231.577 20.1802H232.946C232.946 20.5513 233.027 20.8784 233.188 21.1616C233.354 21.4448 233.588 21.6646 233.891 21.8208C234.194 21.9722 234.55 22.0479 234.96 22.0479C235.59 22.0479 236.081 21.8794 236.433 21.5425C236.789 21.2056 236.967 20.71 236.967 20.0557C236.967 19.4062 236.767 18.9204 236.367 18.5981C235.971 18.271 235.419 18.1074 234.711 18.1074H233.745V17.3018V17.0088H234.711C235.166 17.0088 235.549 16.9307 235.861 16.7744C236.179 16.6182 236.416 16.4009 236.572 16.1226C236.728 15.8442 236.806 15.5269 236.806 15.1704C236.806 14.5552 236.65 14.0889 236.337 13.7715C236.03 13.4492 235.568 13.2881 234.953 13.2881C234.572 13.2881 234.238 13.3638 233.95 13.5151C233.662 13.6665 233.437 13.8813 233.276 14.1597C233.115 14.4331 233.034 14.7554 233.034 15.1265H231.665C231.665 14.5845 231.801 14.0889 232.075 13.6396C232.353 13.1904 232.741 12.8364 233.239 12.5776C233.737 12.3188 234.309 12.1895 234.953 12.1895C235.603 12.1895 236.169 12.3042 236.652 12.5337C237.136 12.7632 237.509 13.105 237.773 13.5591C238.042 14.0083 238.176 14.5552 238.176 15.1997C238.176 15.478 238.115 15.7661 237.993 16.064C237.871 16.3618 237.683 16.6401 237.429 16.8989C237.18 17.1577 236.87 17.3652 236.499 17.5215ZM244.936 17.5215C245.59 17.7314 246.059 18.0635 246.342 18.5176C246.63 18.9668 246.774 19.4697 246.774 20.0264C246.774 20.6758 246.628 21.2349 246.335 21.7036C246.042 22.1724 245.639 22.5312 245.126 22.7803C244.619 23.0244 244.042 23.1465 243.398 23.1465C242.768 23.1465 242.197 23.0293 241.684 22.7949C241.171 22.5605 240.764 22.2212 240.461 21.7769C240.163 21.3276 240.014 20.7954 240.014 20.1802H241.384C241.384 20.5513 241.464 20.8784 241.625 21.1616C241.792 21.4448 242.026 21.6646 242.329 21.8208C242.631 21.9722 242.988 22.0479 243.398 22.0479C244.028 22.0479 244.519 21.8794 244.87 21.5425C245.227 21.2056 245.405 20.71 245.405 20.0557C245.405 19.4062 245.205 18.9204 244.804 18.5981C244.409 18.271 243.857 18.1074 243.149 18.1074H242.182V17.3018V17.0088H243.149C243.603 17.0088 243.986 16.9307 244.299 16.7744C244.616 16.6182 244.853 16.4009 245.009 16.1226C245.166 15.8442 245.244 15.5269 245.244 15.1704C245.244 14.5552 245.087 14.0889 244.775 13.7715C244.467 13.4492 244.006 13.2881 243.391 13.2881C243.01 13.2881 242.675 13.3638 242.387 13.5151C242.099 13.6665 241.875 13.8813 241.713 14.1597C241.552 14.4331 241.472 14.7554 241.472 15.1265H240.102C240.102 14.5845 240.239 14.0889 240.512 13.6396C240.791 13.1904 241.179 12.8364 241.677 12.5776C242.175 12.3188 242.746 12.1895 243.391 12.1895C244.04 12.1895 244.606 12.3042 245.09 12.5337C245.573 12.7632 245.947 13.105 246.21 13.5591C246.479 14.0083 246.613 14.5552 246.613 15.1997C246.613 15.478 246.552 15.7661 246.43 16.064C246.308 16.3618 246.12 16.6401 245.866 16.8989C245.617 17.1577 245.307 17.3652 244.936 17.5215ZM248.642 23V22.0332L252.136 18.144C252.57 17.6606 252.905 17.2554 253.139 16.9282C253.374 16.5962 253.537 16.2983 253.63 16.0347C253.728 15.7661 253.776 15.4878 253.776 15.1997C253.776 14.8433 253.703 14.521 253.557 14.2329C253.41 13.9399 253.198 13.7104 252.919 13.5444C252.641 13.3735 252.312 13.2881 251.931 13.2881C251.237 13.2881 250.71 13.4858 250.349 13.8813C249.987 14.2769 249.807 14.8066 249.807 15.4707H248.437C248.437 14.8604 248.571 14.3062 248.84 13.8081C249.108 13.3101 249.506 12.917 250.034 12.6289C250.561 12.3359 251.193 12.1895 251.931 12.1895C252.59 12.1895 253.161 12.3091 253.645 12.5483C254.128 12.7827 254.499 13.1147 254.758 13.5444C255.017 13.9741 255.146 14.4722 255.146 15.0386C255.146 15.6245 254.965 16.23 254.604 16.855C254.248 17.4751 253.762 18.1196 253.146 18.7886L250.29 21.9014H255.637V23H248.642ZM263.737 19.521C262.795 19.3257 262.082 19.0522 261.599 18.7007C261.12 18.3491 260.881 17.8633 260.881 17.2432C260.881 16.8232 261.003 16.4375 261.247 16.0859C261.491 15.7344 261.835 15.4536 262.28 15.2437C262.729 15.0337 263.242 14.9287 263.818 14.9287C264.433 14.9287 264.97 15.0386 265.429 15.2583C265.888 15.478 266.237 15.7759 266.477 16.1519C266.721 16.5229 266.843 16.938 266.843 17.397H265.473C265.473 17.1724 265.407 16.9551 265.275 16.7451C265.144 16.5352 264.951 16.3643 264.697 16.2324C264.448 16.0957 264.155 16.0273 263.818 16.0273C263.461 16.0273 263.166 16.0835 262.932 16.1958C262.697 16.3032 262.524 16.4473 262.412 16.6279C262.304 16.8037 262.25 16.9941 262.25 17.1992C262.25 17.4092 262.299 17.585 262.397 17.7266C262.5 17.8633 262.68 17.9878 262.939 18.1001C263.203 18.2124 263.581 18.3223 264.074 18.4297C264.738 18.5811 265.278 18.7593 265.693 18.9644C266.108 19.1694 266.416 19.4209 266.616 19.7188C266.821 20.0166 266.923 20.3779 266.923 20.8027C266.923 21.2617 266.796 21.6694 266.542 22.0259C266.289 22.3774 265.93 22.6533 265.466 22.8535C265.002 23.0488 264.465 23.1465 263.854 23.1465C263.181 23.1465 262.597 23.0269 262.104 22.7876C261.616 22.5435 261.245 22.2236 260.991 21.8281C260.737 21.4326 260.61 21.0103 260.61 20.561H261.979C261.999 20.9126 262.102 21.2007 262.287 21.4253C262.473 21.645 262.702 21.8037 262.976 21.9014C263.254 21.999 263.547 22.0479 263.854 22.0479C264.211 22.0479 264.516 21.999 264.77 21.9014C265.029 21.7988 265.224 21.6621 265.356 21.4912C265.488 21.3154 265.554 21.1177 265.554 20.8979C265.554 20.6782 265.507 20.4878 265.415 20.3267C265.322 20.1655 265.144 20.0166 264.88 19.8799C264.616 19.7432 264.235 19.6235 263.737 19.521ZM272.05 23C271.738 23.0977 271.389 23.1465 271.003 23.1465C270.451 23.1465 270.007 22.9805 269.67 22.6484C269.338 22.3164 269.172 21.7769 269.172 21.0298V16.1079H267.729V15.0752H269.172V13.1489H270.542V15.0752H272.021V16.1079H270.542V21.0371C270.542 21.4131 270.62 21.667 270.776 21.7988C270.932 21.9258 271.145 21.9893 271.413 21.9893C271.516 21.9893 271.628 21.9819 271.75 21.9673C271.872 21.9478 271.97 21.9282 272.043 21.9087L272.05 23ZM279.814 15.0752V23H278.51L278.488 22.2163C277.961 22.8364 277.187 23.1465 276.167 23.1465C275.351 23.1465 274.714 22.9072 274.255 22.4287C273.796 21.9502 273.566 21.2031 273.566 20.1875V15.0752H274.936V20.2021C274.936 20.8613 275.07 21.3276 275.339 21.6011C275.612 21.8696 275.961 22.0039 276.386 22.0039C277.412 22.0039 278.098 21.6206 278.444 20.854V15.0752H279.814ZM288.237 11.75V23H286.984L286.918 22.1577C286.381 22.8169 285.629 23.1465 284.663 23.1465C284.052 23.1465 283.51 22.9731 283.037 22.6265C282.563 22.2798 282.194 21.8013 281.931 21.1909C281.672 20.5806 281.542 19.8921 281.542 19.1255V18.9717C281.542 18.1709 281.672 17.4653 281.931 16.855C282.189 16.2446 282.556 15.771 283.029 15.4341C283.503 15.0972 284.052 14.9287 284.677 14.9287C285.61 14.9287 286.34 15.2388 286.867 15.8589V11.75H288.237ZM285 22.0039C285.844 22.0039 286.467 21.6206 286.867 20.854V17.1846C286.682 16.8379 286.435 16.5645 286.127 16.3643C285.825 16.1641 285.454 16.064 285.014 16.064C284.541 16.064 284.145 16.1934 283.828 16.4521C283.515 16.7061 283.283 17.0527 283.132 17.4922C282.985 17.9316 282.912 18.4248 282.912 18.9717V19.1255C282.912 19.6724 282.985 20.1631 283.132 20.5977C283.283 21.0273 283.515 21.3691 283.828 21.623C284.14 21.877 284.531 22.0039 285 22.0039ZM296.726 19.4111H291.364C291.379 19.9043 291.481 20.3511 291.672 20.7515C291.862 21.1519 292.131 21.4692 292.478 21.7036C292.829 21.9331 293.239 22.0479 293.708 22.0479C294.167 22.0479 294.562 21.9551 294.895 21.7695C295.231 21.584 295.532 21.3179 295.795 20.9712L296.623 21.6157C296.33 22.0649 295.939 22.4336 295.451 22.7217C294.963 23.0049 294.357 23.1465 293.635 23.1465C292.912 23.1465 292.275 22.9829 291.723 22.6558C291.171 22.3286 290.744 21.8745 290.441 21.2935C290.144 20.7124 289.995 20.0532 289.995 19.3159V19.001C289.995 18.1758 290.156 17.4556 290.478 16.8403C290.8 16.2202 291.225 15.7466 291.752 15.4194C292.285 15.0923 292.854 14.9287 293.459 14.9287C294.196 14.9287 294.807 15.0947 295.29 15.4268C295.778 15.7539 296.14 16.208 296.374 16.7891C296.608 17.3701 296.726 18.0415 296.726 18.8032V19.4111ZM295.356 18.21C295.317 17.5898 295.148 17.0723 294.851 16.6572C294.558 16.2373 294.094 16.0273 293.459 16.0273C292.912 16.0273 292.456 16.2275 292.089 16.6279C291.728 17.0234 291.501 17.585 291.408 18.3125H295.356V18.21ZM302.006 14.9287C303.701 14.9287 304.548 15.8882 304.548 17.8071V23H303.178V17.7925C303.178 17.187 303.046 16.7476 302.783 16.4741C302.524 16.2007 302.131 16.064 301.604 16.064C301.184 16.064 300.805 16.1787 300.468 16.4082C300.136 16.6377 299.873 16.9453 299.677 17.3311V23H298.308V15.0752H299.604L299.648 16.0493C299.936 15.6929 300.28 15.417 300.681 15.2217C301.081 15.0264 301.523 14.9287 302.006 14.9287ZM309.96 23C309.648 23.0977 309.299 23.1465 308.913 23.1465C308.361 23.1465 307.917 22.9805 307.58 22.6484C307.248 22.3164 307.082 21.7769 307.082 21.0298V16.1079H305.639V15.0752H307.082V13.1489H308.452V15.0752H309.931V16.1079H308.452V21.0371C308.452 21.4131 308.53 21.667 308.686 21.7988C308.842 21.9258 309.055 21.9893 309.323 21.9893C309.426 21.9893 309.538 21.9819 309.66 21.9673C309.782 21.9478 309.88 21.9282 309.953 21.9087L309.96 23ZM314.304 19.521C313.361 19.3257 312.648 19.0522 312.165 18.7007C311.687 18.3491 311.447 17.8633 311.447 17.2432C311.447 16.8232 311.569 16.4375 311.813 16.0859C312.058 15.7344 312.402 15.4536 312.846 15.2437C313.295 15.0337 313.808 14.9287 314.384 14.9287C315 14.9287 315.537 15.0386 315.996 15.2583C316.455 15.478 316.804 15.7759 317.043 16.1519C317.287 16.5229 317.409 16.938 317.409 17.397H316.04C316.04 17.1724 315.974 16.9551 315.842 16.7451C315.71 16.5352 315.517 16.3643 315.263 16.2324C315.014 16.0957 314.721 16.0273 314.384 16.0273C314.028 16.0273 313.732 16.0835 313.498 16.1958C313.264 16.3032 313.09 16.4473 312.978 16.6279C312.871 16.8037 312.817 16.9941 312.817 17.1992C312.817 17.4092 312.866 17.585 312.963 17.7266C313.066 17.8633 313.247 17.9878 313.505 18.1001C313.769 18.2124 314.147 18.3223 314.641 18.4297C315.305 18.5811 315.844 18.7593 316.259 18.9644C316.674 19.1694 316.982 19.4209 317.182 19.7188C317.387 20.0166 317.49 20.3779 317.49 20.8027C317.49 21.2617 317.363 21.6694 317.109 22.0259C316.855 22.3774 316.496 22.6533 316.032 22.8535C315.568 23.0488 315.031 23.1465 314.421 23.1465C313.747 23.1465 313.164 23.0269 312.67 22.7876C312.182 22.5435 311.811 22.2236 311.557 21.8281C311.303 21.4326 311.176 21.0103 311.176 20.561H312.546C312.565 20.9126 312.668 21.2007 312.854 21.4253C313.039 21.645 313.269 21.8037 313.542 21.9014C313.82 21.999 314.113 22.0479 314.421 22.0479C314.777 22.0479 315.083 21.999 315.336 21.9014C315.595 21.7988 315.791 21.6621 315.922 21.4912C316.054 21.3154 316.12 21.1177 316.12 20.8979C316.12 20.6782 316.074 20.4878 315.981 20.3267C315.888 20.1655 315.71 20.0166 315.446 19.8799C315.183 19.7432 314.802 19.6235 314.304 19.521Z" fill="#02073E"/>
<path d="M8.09375 8.5625L6.0625 12.7188L1.46875 13.375C0.65625 13.5 0.34375 14.5 0.9375 15.0938L4.21875 18.3125L3.4375 22.8438C3.3125 23.6562 4.1875 24.2812 4.90625 23.9062L9 21.75L13.0625 23.9062C13.7812 24.2812 14.6562 23.6562 14.5312 22.8438L13.75 18.3125L17.0312 15.0938C17.625 14.5 17.3125 13.5 16.5 13.375L11.9375 12.7188L9.875 8.5625C9.53125 7.84375 8.46875 7.8125 8.09375 8.5625ZM30.8937 8.5625L28.8625 12.7188L24.2687 13.375C23.4562 13.5 23.1437 14.5 23.7375 15.0938L27.0187 18.3125L26.2375 22.8438C26.1125 23.6562 26.9875 24.2812 27.7062 23.9062L31.8 21.75L35.8625 23.9062C36.5812 24.2812 37.4562 23.6562 37.3312 22.8438L36.55 18.3125L39.8312 15.0938C40.425 14.5 40.1125 13.5 39.3 13.375L34.7375 12.7188L32.675 8.5625C32.3312 7.84375 31.2687 7.8125 30.8937 8.5625ZM53.6937 8.5625L51.6625 12.7188L47.0687 13.375C46.2562 13.5 45.9437 14.5 46.5375 15.0938L49.8187 18.3125L49.0375 22.8438C48.9125 23.6562 49.7875 24.2812 50.5062 23.9062L54.6 21.75L58.6625 23.9062C59.3812 24.2812 60.2562 23.6562 60.1312 22.8438L59.35 18.3125L62.6312 15.0938C63.225 14.5 62.9125 13.5 62.1 13.375L57.5375 12.7188L55.475 8.5625C55.1312 7.84375 54.0687 7.8125 53.6937 8.5625ZM76.4938 8.5625L74.4625 12.7188L69.8688 13.375C69.0563 13.5 68.7438 14.5 69.3375 15.0938L72.6188 18.3125L71.8375 22.8438C71.7125 23.6562 72.5875 24.2812 73.3063 23.9062L77.4 21.75L81.4625 23.9062C82.1813 24.2812 83.0563 23.6562 82.9313 22.8438L82.15 18.3125L85.4313 15.0938C86.025 14.5 85.7125 13.5 84.9 13.375L80.3375 12.7188L78.275 8.5625C77.9313 7.84375 76.8688 7.8125 76.4938 8.5625Z" fill="#02073E"/>
<path d="M99.2937 8.5625L97.2625 12.7188L92.6687 13.375C91.8562 13.5 91.5437 14.5 92.1375 15.0938L95.4187 18.3125L94.6375 22.8438C94.5125 23.6562 95.3875 24.2812 96.1062 23.9062L100.2 21.75L104.262 23.9062C104.981 24.2812 105.856 23.6562 105.731 22.8438L104.95 18.3125L108.231 15.0938C108.825 14.5 108.512 13.5 107.7 13.375L103.137 12.7188L101.075 8.5625C100.731 7.84375 99.6687 7.8125 99.2937 8.5625Z" fill="#02073E" fill-opacity="0.2"/>
</svg>
