<svg width="235" height="33" viewBox="0 0 235 33" fill="none" xmlns="http://www.w3.org/2000/svg">
<path opacity="0.8" d="M120.051 12.3359H125.522V13.5737H121.208L120.893 16.4961C121.113 16.3643 121.372 16.2544 121.669 16.1665C121.972 16.0786 122.304 16.0347 122.666 16.0347C123.315 16.0347 123.876 16.1812 124.35 16.4741C124.829 16.7622 125.195 17.1748 125.449 17.7119C125.708 18.249 125.837 18.8789 125.837 19.6016C125.837 20.2949 125.71 20.9102 125.456 21.4473C125.207 21.9795 124.829 22.397 124.321 22.6997C123.818 22.9976 123.198 23.1465 122.46 23.1465C121.87 23.1465 121.333 23.0366 120.849 22.8169C120.371 22.5972 119.978 22.2676 119.67 21.8281C119.367 21.3838 119.187 20.8394 119.128 20.1948H120.424C120.507 20.8003 120.722 21.2617 121.069 21.5791C121.42 21.8916 121.884 22.0479 122.46 22.0479C122.88 22.0479 123.239 21.9502 123.537 21.7549C123.84 21.5547 124.069 21.2739 124.226 20.9126C124.387 20.5464 124.467 20.1143 124.467 19.6162C124.467 19.1621 124.384 18.7568 124.218 18.4004C124.052 18.0391 123.808 17.7559 123.486 17.5508C123.168 17.3457 122.788 17.2432 122.343 17.2432C122.055 17.2432 121.811 17.27 121.611 17.3237C121.416 17.3726 121.247 17.4434 121.105 17.5361C120.964 17.6289 120.798 17.7583 120.607 17.9243L119.509 17.646L120.051 12.3359ZM128.334 21.4692C128.603 21.4692 128.811 21.5474 128.957 21.7036C129.108 21.855 129.184 22.0503 129.184 22.2896C129.184 22.5239 129.108 22.7144 128.957 22.8608C128.811 23.0073 128.603 23.0806 128.334 23.0806C128.071 23.0806 127.863 23.0073 127.712 22.8608C127.565 22.7095 127.492 22.519 127.492 22.2896C127.492 22.0503 127.565 21.855 127.712 21.7036C127.863 21.5474 128.071 21.4692 128.334 21.4692ZM137.988 18.4517C137.988 20.1216 137.7 21.3228 137.124 22.0552C136.552 22.7827 135.722 23.1465 134.633 23.1465C133.549 23.1465 132.714 22.7803 132.128 22.0479C131.542 21.3154 131.25 20.1167 131.25 18.4517V16.8184C131.25 15.1582 131.538 13.9717 132.114 13.2588C132.695 12.5459 133.53 12.1895 134.619 12.1895C135.712 12.1895 136.547 12.5459 137.124 13.2588C137.7 13.9717 137.988 15.1582 137.988 16.8184V18.4517ZM136.618 16.5913C136.618 15.4194 136.452 14.5771 136.12 14.0645C135.793 13.5469 135.292 13.2881 134.619 13.2881C133.955 13.2881 133.454 13.5469 133.117 14.0645C132.785 14.582 132.619 15.4243 132.619 16.5913V18.6641C132.619 19.8311 132.79 20.688 133.132 21.2349C133.474 21.7769 133.974 22.0479 134.633 22.0479C135.302 22.0479 135.8 21.7793 136.127 21.2422C136.455 20.7002 136.618 19.8408 136.618 18.6641V16.5913ZM143.54 18.6714C143.54 17.353 143.73 16.1592 144.111 15.0898C144.497 14.0205 144.965 13.1392 145.517 12.4458C146.074 11.7476 146.613 11.2544 147.136 10.9663L147.421 11.8525C147.001 12.1748 146.601 12.6411 146.22 13.2515C145.839 13.8569 145.524 14.6187 145.275 15.5366C145.031 16.4546 144.909 17.4922 144.909 18.6494V18.7593C144.909 19.9165 145.031 20.9541 145.275 21.8721C145.524 22.79 145.837 23.5566 146.213 24.1719C146.594 24.792 146.997 25.2778 147.421 25.6294L147.136 26.4424C146.613 26.1494 146.074 25.6562 145.517 24.9629C144.965 24.2695 144.497 23.3906 144.111 22.3262C143.73 21.2568 143.54 20.063 143.54 18.7446V18.6714ZM153.325 17.5215C153.979 17.7314 154.448 18.0635 154.731 18.5176C155.019 18.9668 155.163 19.4697 155.163 20.0264C155.163 20.6758 155.017 21.2349 154.724 21.7036C154.431 22.1724 154.028 22.5312 153.515 22.7803C153.007 23.0244 152.431 23.1465 151.787 23.1465C151.157 23.1465 150.585 23.0293 150.073 22.7949C149.56 22.5605 149.152 22.2212 148.85 21.7769C148.552 21.3276 148.403 20.7954 148.403 20.1802H149.772C149.772 20.5513 149.853 20.8784 150.014 21.1616C150.18 21.4448 150.415 21.6646 150.717 21.8208C151.02 21.9722 151.376 22.0479 151.787 22.0479C152.417 22.0479 152.907 21.8794 153.259 21.5425C153.615 21.2056 153.793 20.71 153.793 20.0557C153.793 19.4062 153.593 18.9204 153.193 18.5981C152.797 18.271 152.246 18.1074 151.538 18.1074H150.571V17.3018V17.0088H151.538C151.992 17.0088 152.375 16.9307 152.688 16.7744C153.005 16.6182 153.242 16.4009 153.398 16.1226C153.554 15.8442 153.632 15.5269 153.632 15.1704C153.632 14.5552 153.476 14.0889 153.164 13.7715C152.856 13.4492 152.395 13.2881 151.779 13.2881C151.398 13.2881 151.064 13.3638 150.776 13.5151C150.488 13.6665 150.263 13.8813 150.102 14.1597C149.941 14.4331 149.86 14.7554 149.86 15.1265H148.491C148.491 14.5845 148.627 14.0889 148.901 13.6396C149.179 13.1904 149.567 12.8364 150.065 12.5776C150.563 12.3188 151.135 12.1895 151.779 12.1895C152.429 12.1895 152.995 12.3042 153.479 12.5337C153.962 12.7632 154.335 13.105 154.599 13.5591C154.868 14.0083 155.002 14.5552 155.002 15.1997C155.002 15.478 154.941 15.7661 154.819 16.064C154.697 16.3618 154.509 16.6401 154.255 16.8989C154.006 17.1577 153.696 17.3652 153.325 17.5215ZM160.188 12.1895C160.964 12.1895 161.606 12.3921 162.114 12.7974C162.626 13.1978 163 13.7227 163.234 14.3721C163.474 15.0215 163.593 15.7295 163.593 16.4961V17.0015C163.593 18.105 163.466 19.0938 163.212 19.9678C162.958 20.8418 162.458 21.5693 161.711 22.1504C160.964 22.7266 159.899 23.0146 158.518 23.0146H158.378V21.8721H158.518C159.865 21.8721 160.808 21.5498 161.345 20.9053C161.887 20.2559 162.18 19.3916 162.224 18.3125C161.931 18.6592 161.586 18.9326 161.191 19.1328C160.795 19.333 160.373 19.4331 159.924 19.4331C159.255 19.4331 158.691 19.2646 158.232 18.9277C157.773 18.5859 157.431 18.144 157.207 17.6021C156.987 17.0601 156.877 16.4839 156.877 15.8735C156.877 15.1851 157.004 14.5625 157.258 14.0059C157.512 13.4443 157.888 13.0024 158.386 12.6802C158.884 12.353 159.484 12.1895 160.188 12.1895ZM160.144 18.3198C160.593 18.3198 161.005 18.1831 161.381 17.9097C161.762 17.6313 162.045 17.2798 162.231 16.855V16.3203C162.231 15.6953 162.138 15.1558 161.953 14.7017C161.767 14.2427 161.518 13.896 161.206 13.6616C160.893 13.4224 160.554 13.3027 160.188 13.3027C159.782 13.3027 159.431 13.4102 159.133 13.625C158.835 13.8398 158.608 14.1377 158.452 14.5186C158.295 14.8945 158.217 15.3218 158.217 15.8003C158.217 16.2397 158.288 16.6523 158.43 17.0381C158.576 17.4189 158.793 17.729 159.082 17.9683C159.375 18.2026 159.729 18.3198 160.144 18.3198ZM165.468 23V22.0332L168.962 18.144C169.396 17.6606 169.731 17.2554 169.965 16.9282C170.2 16.5962 170.363 16.2983 170.456 16.0347C170.554 15.7661 170.603 15.4878 170.603 15.1997C170.603 14.8433 170.529 14.521 170.383 14.2329C170.236 13.9399 170.024 13.7104 169.746 13.5444C169.467 13.3735 169.138 13.2881 168.757 13.2881C168.063 13.2881 167.536 13.4858 167.175 13.8813C166.813 14.2769 166.633 14.8066 166.633 15.4707H165.263C165.263 14.8604 165.397 14.3062 165.666 13.8081C165.935 13.3101 166.333 12.917 166.86 12.6289C167.387 12.3359 168.02 12.1895 168.757 12.1895C169.416 12.1895 169.987 12.3091 170.471 12.5483C170.954 12.7827 171.325 13.1147 171.584 13.5444C171.843 13.9741 171.972 14.4722 171.972 15.0386C171.972 15.6245 171.792 16.23 171.43 16.855C171.074 17.4751 170.588 18.1196 169.973 18.7886L167.116 21.9014H172.463V23H165.468ZM181.003 14.9287C181.091 14.9287 181.201 14.9409 181.333 14.9653C181.464 14.9849 181.555 15.0068 181.604 15.0312V16.2837C181.394 16.2446 181.171 16.2251 180.937 16.2251C180.488 16.2251 180.112 16.3252 179.809 16.5254C179.511 16.7256 179.287 17.0063 179.135 17.3677V23H177.766V15.0752H179.099L179.128 15.9761C179.333 15.644 179.592 15.3877 179.904 15.207C180.217 15.0215 180.583 14.9287 181.003 14.9287ZM189.235 19.4111H183.874C183.889 19.9043 183.991 20.3511 184.182 20.7515C184.372 21.1519 184.641 21.4692 184.987 21.7036C185.339 21.9331 185.749 22.0479 186.218 22.0479C186.677 22.0479 187.072 21.9551 187.404 21.7695C187.741 21.584 188.042 21.3179 188.305 20.9712L189.133 21.6157C188.84 22.0649 188.449 22.4336 187.961 22.7217C187.473 23.0049 186.867 23.1465 186.145 23.1465C185.422 23.1465 184.785 22.9829 184.233 22.6558C183.681 22.3286 183.254 21.8745 182.951 21.2935C182.653 20.7124 182.504 20.0532 182.504 19.3159V19.001C182.504 18.1758 182.666 17.4556 182.988 16.8403C183.31 16.2202 183.735 15.7466 184.262 15.4194C184.794 15.0923 185.363 14.9287 185.969 14.9287C186.706 14.9287 187.316 15.0947 187.8 15.4268C188.288 15.7539 188.649 16.208 188.884 16.7891C189.118 17.3701 189.235 18.0415 189.235 18.8032V19.4111ZM187.866 18.21C187.827 17.5898 187.658 17.0723 187.36 16.6572C187.067 16.2373 186.604 16.0273 185.969 16.0273C185.422 16.0273 184.965 16.2275 184.599 16.6279C184.238 17.0234 184.011 17.585 183.918 18.3125H187.866V18.21ZM196.684 15.0752L193.842 23H192.919H192.802L189.931 15.0752H191.33L193.337 21.147L195.285 15.0752H196.684ZM198.808 12.1895C199.062 12.1895 199.26 12.2627 199.401 12.4092C199.548 12.5557 199.621 12.7412 199.621 12.9658C199.621 13.1855 199.548 13.3687 199.401 13.5151C199.26 13.6567 199.062 13.7275 198.808 13.7275C198.554 13.7275 198.356 13.6567 198.215 13.5151C198.078 13.3687 198.01 13.1855 198.01 12.9658C198.01 12.7412 198.078 12.5557 198.215 12.4092C198.356 12.2627 198.554 12.1895 198.808 12.1895ZM198.112 23V15.0752H199.482V23H198.112ZM208.029 19.4111H202.668C202.683 19.9043 202.785 20.3511 202.976 20.7515C203.166 21.1519 203.435 21.4692 203.781 21.7036C204.133 21.9331 204.543 22.0479 205.012 22.0479C205.471 22.0479 205.866 21.9551 206.198 21.7695C206.535 21.584 206.835 21.3179 207.099 20.9712L207.927 21.6157C207.634 22.0649 207.243 22.4336 206.755 22.7217C206.267 23.0049 205.661 23.1465 204.938 23.1465C204.216 23.1465 203.579 22.9829 203.027 22.6558C202.475 22.3286 202.048 21.8745 201.745 21.2935C201.447 20.7124 201.298 20.0532 201.298 19.3159V19.001C201.298 18.1758 201.459 17.4556 201.782 16.8403C202.104 16.2202 202.529 15.7466 203.056 15.4194C203.588 15.0923 204.157 14.9287 204.763 14.9287C205.5 14.9287 206.11 15.0947 206.594 15.4268C207.082 15.7539 207.443 16.208 207.678 16.7891C207.912 17.3701 208.029 18.0415 208.029 18.8032V19.4111ZM206.66 18.21C206.621 17.5898 206.452 17.0723 206.154 16.6572C205.861 16.2373 205.397 16.0273 204.763 16.0273C204.216 16.0273 203.759 16.2275 203.393 16.6279C203.032 17.0234 202.805 17.585 202.712 18.3125H206.66V18.21ZM219.506 15.0752L217.207 23H216.298H216.101L214.182 17.0161L212.307 23H211.435H211.201L208.901 15.0752H210.263L211.816 20.9565L213.654 15.0752H214.555H214.76L216.628 21.0884L218.151 15.0752H219.506ZM223.688 19.521C222.746 19.3257 222.033 19.0522 221.55 18.7007C221.071 18.3491 220.832 17.8633 220.832 17.2432C220.832 16.8232 220.954 16.4375 221.198 16.0859C221.442 15.7344 221.787 15.4536 222.231 15.2437C222.68 15.0337 223.193 14.9287 223.769 14.9287C224.384 14.9287 224.921 15.0386 225.38 15.2583C225.839 15.478 226.188 15.7759 226.428 16.1519C226.672 16.5229 226.794 16.938 226.794 17.397H225.424C225.424 17.1724 225.358 16.9551 225.227 16.7451C225.095 16.5352 224.902 16.3643 224.648 16.2324C224.399 16.0957 224.106 16.0273 223.769 16.0273C223.413 16.0273 223.117 16.0835 222.883 16.1958C222.648 16.3032 222.475 16.4473 222.363 16.6279C222.255 16.8037 222.202 16.9941 222.202 17.1992C222.202 17.4092 222.25 17.585 222.348 17.7266C222.451 17.8633 222.631 17.9878 222.89 18.1001C223.154 18.2124 223.532 18.3223 224.025 18.4297C224.689 18.5811 225.229 18.7593 225.644 18.9644C226.059 19.1694 226.367 19.4209 226.567 19.7188C226.772 20.0166 226.875 20.3779 226.875 20.8027C226.875 21.2617 226.748 21.6694 226.494 22.0259C226.24 22.3774 225.881 22.6533 225.417 22.8535C224.953 23.0488 224.416 23.1465 223.806 23.1465C223.132 23.1465 222.548 23.0269 222.055 22.7876C221.567 22.5435 221.196 22.2236 220.942 21.8281C220.688 21.4326 220.561 21.0103 220.561 20.561H221.931C221.95 20.9126 222.053 21.2007 222.238 21.4253C222.424 21.645 222.653 21.8037 222.927 21.9014C223.205 21.999 223.498 22.0479 223.806 22.0479C224.162 22.0479 224.467 21.999 224.721 21.9014C224.98 21.7988 225.175 21.6621 225.307 21.4912C225.439 21.3154 225.505 21.1177 225.505 20.8979C225.505 20.6782 225.458 20.4878 225.366 20.3267C225.273 20.1655 225.095 20.0166 224.831 19.8799C224.567 19.7432 224.187 19.6235 223.688 19.521ZM231.774 18.7446C231.774 20.063 231.582 21.2568 231.196 22.3262C230.815 23.3906 230.349 24.2695 229.797 24.9629C229.245 25.6562 228.708 26.1494 228.186 26.4424L227.9 25.6294C228.32 25.312 228.72 24.8408 229.101 24.2158C229.482 23.5957 229.794 22.8218 230.039 21.894C230.288 20.9614 230.412 19.9165 230.412 18.7593V18.6494C230.412 17.502 230.283 16.4644 230.024 15.5366C229.765 14.604 229.445 13.8276 229.064 13.2075C228.684 12.5825 228.295 12.1089 227.9 11.7866L228.186 10.9663C228.708 11.2544 229.245 11.7476 229.797 12.4458C230.349 13.1392 230.815 14.0205 231.196 15.0898C231.582 16.1592 231.774 17.353 231.774 18.6714V18.7446Z" fill="#0F2137"/>
<path d="M8.09375 8.5625C8.21875 8.3125 8.375 8.15625 8.625 8.0625C8.875 8 9.09375 8 9.34375 8.0625C9.59375 8.15625 9.78125 8.3125 9.90625 8.5625L11.9375 12.6875L16.5 13.3438C16.75 13.4062 16.9688 13.5312 17.125 13.7188C17.2812 13.9375 17.3438 14.1562 17.3438 14.4062C17.3438 14.6562 17.25 14.875 17.0625 15.0625L13.75 18.2812L14.5312 22.8438C14.5625 23.0938 14.5 23.3438 14.375 23.5625C14.25 23.7812 14.0625 23.9062 13.8125 23.9688C13.5625 24.0312 13.3125 24 13.0938 23.875L9 21.75L4.90625 23.875C4.65625 24 4.4375 24.0312 4.1875 23.9688C3.9375 23.9062 3.71875 23.7812 3.59375 23.5625C3.46875 23.3438 3.40625 23.0938 3.46875 22.8438L4.25 18.2812L0.9375 15.0625C0.75 14.875 0.625 14.6562 0.625 14.4062C0.625 14.1562 0.6875 13.9375 0.84375 13.7188C1 13.5312 1.21875 13.4062 1.5 13.3438L6.0625 12.6875L8.09375 8.5625ZM30.8937 8.5625C31.0187 8.3125 31.175 8.15625 31.425 8.0625C31.675 8 31.8937 8 32.1437 8.0625C32.3937 8.15625 32.5812 8.3125 32.7062 8.5625L34.7375 12.6875L39.3 13.3438C39.55 13.4062 39.7687 13.5312 39.925 13.7188C40.0812 13.9375 40.1437 14.1562 40.1437 14.4062C40.1437 14.6562 40.05 14.875 39.8625 15.0625L36.55 18.2812L37.3312 22.8438C37.3625 23.0938 37.3 23.3438 37.175 23.5625C37.05 23.7812 36.8625 23.9062 36.6125 23.9688C36.3625 24.0312 36.1125 24 35.8937 23.875L31.8 21.75L27.7062 23.875C27.4562 24 27.2375 24.0312 26.9875 23.9688C26.7375 23.9062 26.5187 23.7812 26.3937 23.5625C26.2687 23.3438 26.2062 23.0938 26.2687 22.8438L27.05 18.2812L23.7375 15.0625C23.55 14.875 23.425 14.6562 23.425 14.4062C23.425 14.1562 23.4875 13.9375 23.6437 13.7188C23.8 13.5312 24.0187 13.4062 24.3 13.3438L28.8625 12.6875L30.8937 8.5625ZM53.6937 8.5625C53.8187 8.3125 53.975 8.15625 54.225 8.0625C54.475 8 54.6937 8 54.9437 8.0625C55.1937 8.15625 55.3812 8.3125 55.5062 8.5625L57.5375 12.6875L62.1 13.3438C62.35 13.4062 62.5687 13.5312 62.725 13.7188C62.8812 13.9375 62.9437 14.1562 62.9437 14.4062C62.9437 14.6562 62.85 14.875 62.6625 15.0625L59.35 18.2812L60.1312 22.8438C60.1625 23.0938 60.1 23.3438 59.975 23.5625C59.85 23.7812 59.6625 23.9062 59.4125 23.9688C59.1625 24.0312 58.9125 24 58.6937 23.875L54.6 21.75L50.5062 23.875C50.2562 24 50.0375 24.0312 49.7875 23.9688C49.5375 23.9062 49.3187 23.7812 49.1937 23.5625C49.0687 23.3438 49.0062 23.0938 49.0687 22.8438L49.85 18.2812L46.5375 15.0625C46.35 14.875 46.225 14.6562 46.225 14.4062C46.225 14.1562 46.2875 13.9375 46.4437 13.7188C46.6 13.5312 46.8187 13.4062 47.1 13.3438L51.6625 12.6875L53.6937 8.5625ZM76.4938 8.5625C76.6188 8.3125 76.775 8.15625 77.025 8.0625C77.275 8 77.4938 8 77.7438 8.0625C77.9938 8.15625 78.1813 8.3125 78.3063 8.5625L80.3375 12.6875L84.9 13.3438C85.15 13.4062 85.3688 13.5312 85.525 13.7188C85.6813 13.9375 85.7438 14.1562 85.7438 14.4062C85.7438 14.6562 85.65 14.875 85.4625 15.0625L82.15 18.2812L82.9313 22.8438C82.9625 23.0938 82.9 23.3438 82.775 23.5625C82.65 23.7812 82.4625 23.9062 82.2125 23.9688C81.9625 24.0312 81.7125 24 81.4938 23.875L77.4 21.75L73.3063 23.875C73.0563 24 72.8375 24.0312 72.5875 23.9688C72.3375 23.9062 72.1188 23.7812 71.9938 23.5625C71.8688 23.3438 71.8063 23.0938 71.8688 22.8438L72.65 18.2812L69.3375 15.0625C69.15 14.875 69.025 14.6562 69.025 14.4062C69.025 14.1562 69.0875 13.9375 69.2438 13.7188C69.4 13.5312 69.6188 13.4062 69.9 13.3438L74.4625 12.6875L76.4938 8.5625ZM99.2937 8.5625C99.4187 8.3125 99.575 8.15625 99.825 8.0625C100.075 8 100.294 8 100.544 8.0625C100.794 8.15625 100.981 8.3125 101.106 8.5625L103.137 12.6875L107.7 13.3438C107.95 13.4062 108.169 13.5312 108.325 13.7188C108.481 13.9375 108.544 14.1562 108.544 14.4062C108.544 14.6562 108.45 14.875 108.262 15.0625L104.95 18.2812L105.731 22.8438C105.762 23.0938 105.7 23.3438 105.575 23.5625C105.45 23.7812 105.262 23.9062 105.012 23.9688C104.762 24.0312 104.512 24 104.294 23.875L100.2 21.75L96.1062 23.875C95.8562 24 95.6375 24.0312 95.3875 23.9688C95.1375 23.9062 94.9187 23.7812 94.7937 23.5625C94.6687 23.3438 94.6062 23.0938 94.6687 22.8438L95.45 18.2812L92.1375 15.0625C91.95 14.875 91.825 14.6562 91.825 14.4062C91.825 14.1562 91.8875 13.9375 92.0437 13.7188C92.2 13.5312 92.4187 13.4062 92.7 13.3438L97.2625 12.6875L99.2937 8.5625Z" fill="#FFCE1F"/>
</svg>
