<svg width="235" height="33" viewBox="0 0 235 33" fill="none" xmlns="http://www.w3.org/2000/svg">
<path opacity="0.8" d="M126.093 20.5171H124.614V23H123.244V20.5171H118.388V19.7261L123.156 12.3359H124.27H124.614V19.4185H126.093V20.5171ZM123.244 19.4185V14.1816L123.083 14.4673L119.934 19.4185H123.244ZM128.334 21.4692C128.603 21.4692 128.811 21.5474 128.957 21.7036C129.108 21.855 129.184 22.0503 129.184 22.2896C129.184 22.5239 129.108 22.7144 128.957 22.8608C128.811 23.0073 128.603 23.0806 128.334 23.0806C128.071 23.0806 127.863 23.0073 127.712 22.8608C127.565 22.7095 127.492 22.519 127.492 22.2896C127.492 22.0503 127.565 21.855 127.712 21.7036C127.863 21.5474 128.071 21.4692 128.334 21.4692ZM132.458 12.3359H137.929V13.5737H133.615L133.3 16.4961C133.52 16.3643 133.779 16.2544 134.077 16.1665C134.379 16.0786 134.711 16.0347 135.073 16.0347C135.722 16.0347 136.284 16.1812 136.757 16.4741C137.236 16.7622 137.602 17.1748 137.856 17.7119C138.115 18.249 138.244 18.8789 138.244 19.6016C138.244 20.2949 138.117 20.9102 137.863 21.4473C137.614 21.9795 137.236 22.397 136.728 22.6997C136.225 22.9976 135.605 23.1465 134.868 23.1465C134.277 23.1465 133.74 23.0366 133.256 22.8169C132.778 22.5972 132.385 22.2676 132.077 21.8281C131.774 21.3838 131.594 20.8394 131.535 20.1948H132.832C132.915 20.8003 133.129 21.2617 133.476 21.5791C133.828 21.8916 134.292 22.0479 134.868 22.0479C135.288 22.0479 135.646 21.9502 135.944 21.7549C136.247 21.5547 136.477 21.2739 136.633 20.9126C136.794 20.5464 136.875 20.1143 136.875 19.6162C136.875 19.1621 136.792 18.7568 136.625 18.4004C136.459 18.0391 136.215 17.7559 135.893 17.5508C135.576 17.3457 135.195 17.2432 134.75 17.2432C134.462 17.2432 134.218 17.27 134.018 17.3237C133.823 17.3726 133.654 17.4434 133.513 17.5361C133.371 17.6289 133.205 17.7583 133.015 17.9243L131.916 17.646L132.458 12.3359ZM143.54 18.6714C143.54 17.353 143.73 16.1592 144.111 15.0898C144.497 14.0205 144.965 13.1392 145.517 12.4458C146.074 11.7476 146.613 11.2544 147.136 10.9663L147.421 11.8525C147.001 12.1748 146.601 12.6411 146.22 13.2515C145.839 13.8569 145.524 14.6187 145.275 15.5366C145.031 16.4546 144.909 17.4922 144.909 18.6494V18.7593C144.909 19.9165 145.031 20.9541 145.275 21.8721C145.524 22.79 145.837 23.5566 146.213 24.1719C146.594 24.792 146.997 25.2778 147.421 25.6294L147.136 26.4424C146.613 26.1494 146.074 25.6562 145.517 24.9629C144.965 24.2695 144.497 23.3906 144.111 22.3262C143.73 21.2568 143.54 20.063 143.54 18.7446V18.6714ZM149.758 12.3359H155.229V13.5737H150.915L150.6 16.4961C150.82 16.3643 151.079 16.2544 151.376 16.1665C151.679 16.0786 152.011 16.0347 152.373 16.0347C153.022 16.0347 153.583 16.1812 154.057 16.4741C154.536 16.7622 154.902 17.1748 155.156 17.7119C155.415 18.249 155.544 18.8789 155.544 19.6016C155.544 20.2949 155.417 20.9102 155.163 21.4473C154.914 21.9795 154.536 22.397 154.028 22.6997C153.525 22.9976 152.905 23.1465 152.167 23.1465C151.577 23.1465 151.04 23.0366 150.556 22.8169C150.078 22.5972 149.685 22.2676 149.377 21.8281C149.074 21.3838 148.894 20.8394 148.835 20.1948H150.131C150.214 20.8003 150.429 21.2617 150.776 21.5791C151.127 21.8916 151.591 22.0479 152.167 22.0479C152.587 22.0479 152.946 21.9502 153.244 21.7549C153.547 21.5547 153.776 21.2739 153.933 20.9126C154.094 20.5464 154.174 20.1143 154.174 19.6162C154.174 19.1621 154.091 18.7568 153.925 18.4004C153.759 18.0391 153.515 17.7559 153.193 17.5508C152.875 17.3457 152.495 17.2432 152.05 17.2432C151.762 17.2432 151.518 17.27 151.318 17.3237C151.123 17.3726 150.954 17.4434 150.812 17.5361C150.671 17.6289 150.505 17.7583 150.314 17.9243L149.216 17.646L149.758 12.3359ZM157.031 23V22.0332L160.524 18.144C160.959 17.6606 161.293 17.2554 161.528 16.9282C161.762 16.5962 161.926 16.2983 162.019 16.0347C162.116 15.7661 162.165 15.4878 162.165 15.1997C162.165 14.8433 162.092 14.521 161.945 14.2329C161.799 13.9399 161.586 13.7104 161.308 13.5444C161.03 13.3735 160.7 13.2881 160.319 13.2881C159.626 13.2881 159.099 13.4858 158.737 13.8813C158.376 14.2769 158.195 14.8066 158.195 15.4707H156.826C156.826 14.8604 156.96 14.3062 157.229 13.8081C157.497 13.3101 157.895 12.917 158.422 12.6289C158.95 12.3359 159.582 12.1895 160.319 12.1895C160.979 12.1895 161.55 12.3091 162.033 12.5483C162.517 12.7827 162.888 13.1147 163.146 13.5444C163.405 13.9741 163.535 14.4722 163.535 15.0386C163.535 15.6245 163.354 16.23 162.993 16.855C162.636 17.4751 162.15 18.1196 161.535 18.7886L158.679 21.9014H164.025V23H157.031ZM172.675 20.5171H171.196V23H169.826V20.5171H164.97V19.7261L169.738 12.3359H170.852H171.196V19.4185H172.675V20.5171ZM169.826 19.4185V14.1816L169.665 14.4673L166.516 19.4185H169.826ZM181.003 14.9287C181.091 14.9287 181.201 14.9409 181.333 14.9653C181.464 14.9849 181.555 15.0068 181.604 15.0312V16.2837C181.394 16.2446 181.171 16.2251 180.937 16.2251C180.488 16.2251 180.112 16.3252 179.809 16.5254C179.511 16.7256 179.287 17.0063 179.135 17.3677V23H177.766V15.0752H179.099L179.128 15.9761C179.333 15.644 179.592 15.3877 179.904 15.207C180.217 15.0215 180.583 14.9287 181.003 14.9287ZM189.235 19.4111H183.874C183.889 19.9043 183.991 20.3511 184.182 20.7515C184.372 21.1519 184.641 21.4692 184.987 21.7036C185.339 21.9331 185.749 22.0479 186.218 22.0479C186.677 22.0479 187.072 21.9551 187.404 21.7695C187.741 21.584 188.042 21.3179 188.305 20.9712L189.133 21.6157C188.84 22.0649 188.449 22.4336 187.961 22.7217C187.473 23.0049 186.867 23.1465 186.145 23.1465C185.422 23.1465 184.785 22.9829 184.233 22.6558C183.681 22.3286 183.254 21.8745 182.951 21.2935C182.653 20.7124 182.504 20.0532 182.504 19.3159V19.001C182.504 18.1758 182.666 17.4556 182.988 16.8403C183.31 16.2202 183.735 15.7466 184.262 15.4194C184.794 15.0923 185.363 14.9287 185.969 14.9287C186.706 14.9287 187.316 15.0947 187.8 15.4268C188.288 15.7539 188.649 16.208 188.884 16.7891C189.118 17.3701 189.235 18.0415 189.235 18.8032V19.4111ZM187.866 18.21C187.827 17.5898 187.658 17.0723 187.36 16.6572C187.067 16.2373 186.604 16.0273 185.969 16.0273C185.422 16.0273 184.965 16.2275 184.599 16.6279C184.238 17.0234 184.011 17.585 183.918 18.3125H187.866V18.21ZM196.684 15.0752L193.842 23H192.919H192.802L189.931 15.0752H191.33L193.337 21.147L195.285 15.0752H196.684ZM198.808 12.1895C199.062 12.1895 199.26 12.2627 199.401 12.4092C199.548 12.5557 199.621 12.7412 199.621 12.9658C199.621 13.1855 199.548 13.3687 199.401 13.5151C199.26 13.6567 199.062 13.7275 198.808 13.7275C198.554 13.7275 198.356 13.6567 198.215 13.5151C198.078 13.3687 198.01 13.1855 198.01 12.9658C198.01 12.7412 198.078 12.5557 198.215 12.4092C198.356 12.2627 198.554 12.1895 198.808 12.1895ZM198.112 23V15.0752H199.482V23H198.112ZM208.029 19.4111H202.668C202.683 19.9043 202.785 20.3511 202.976 20.7515C203.166 21.1519 203.435 21.4692 203.781 21.7036C204.133 21.9331 204.543 22.0479 205.012 22.0479C205.471 22.0479 205.866 21.9551 206.198 21.7695C206.535 21.584 206.835 21.3179 207.099 20.9712L207.927 21.6157C207.634 22.0649 207.243 22.4336 206.755 22.7217C206.267 23.0049 205.661 23.1465 204.938 23.1465C204.216 23.1465 203.579 22.9829 203.027 22.6558C202.475 22.3286 202.048 21.8745 201.745 21.2935C201.447 20.7124 201.298 20.0532 201.298 19.3159V19.001C201.298 18.1758 201.459 17.4556 201.782 16.8403C202.104 16.2202 202.529 15.7466 203.056 15.4194C203.588 15.0923 204.157 14.9287 204.763 14.9287C205.5 14.9287 206.11 15.0947 206.594 15.4268C207.082 15.7539 207.443 16.208 207.678 16.7891C207.912 17.3701 208.029 18.0415 208.029 18.8032V19.4111ZM206.66 18.21C206.621 17.5898 206.452 17.0723 206.154 16.6572C205.861 16.2373 205.397 16.0273 204.763 16.0273C204.216 16.0273 203.759 16.2275 203.393 16.6279C203.032 17.0234 202.805 17.585 202.712 18.3125H206.66V18.21ZM219.506 15.0752L217.207 23H216.298H216.101L214.182 17.0161L212.307 23H211.435H211.201L208.901 15.0752H210.263L211.816 20.9565L213.654 15.0752H214.555H214.76L216.628 21.0884L218.151 15.0752H219.506ZM223.688 19.521C222.746 19.3257 222.033 19.0522 221.55 18.7007C221.071 18.3491 220.832 17.8633 220.832 17.2432C220.832 16.8232 220.954 16.4375 221.198 16.0859C221.442 15.7344 221.787 15.4536 222.231 15.2437C222.68 15.0337 223.193 14.9287 223.769 14.9287C224.384 14.9287 224.921 15.0386 225.38 15.2583C225.839 15.478 226.188 15.7759 226.428 16.1519C226.672 16.5229 226.794 16.938 226.794 17.397H225.424C225.424 17.1724 225.358 16.9551 225.227 16.7451C225.095 16.5352 224.902 16.3643 224.648 16.2324C224.399 16.0957 224.106 16.0273 223.769 16.0273C223.413 16.0273 223.117 16.0835 222.883 16.1958C222.648 16.3032 222.475 16.4473 222.363 16.6279C222.255 16.8037 222.202 16.9941 222.202 17.1992C222.202 17.4092 222.25 17.585 222.348 17.7266C222.451 17.8633 222.631 17.9878 222.89 18.1001C223.154 18.2124 223.532 18.3223 224.025 18.4297C224.689 18.5811 225.229 18.7593 225.644 18.9644C226.059 19.1694 226.367 19.4209 226.567 19.7188C226.772 20.0166 226.875 20.3779 226.875 20.8027C226.875 21.2617 226.748 21.6694 226.494 22.0259C226.24 22.3774 225.881 22.6533 225.417 22.8535C224.953 23.0488 224.416 23.1465 223.806 23.1465C223.132 23.1465 222.548 23.0269 222.055 22.7876C221.567 22.5435 221.196 22.2236 220.942 21.8281C220.688 21.4326 220.561 21.0103 220.561 20.561H221.931C221.95 20.9126 222.053 21.2007 222.238 21.4253C222.424 21.645 222.653 21.8037 222.927 21.9014C223.205 21.999 223.498 22.0479 223.806 22.0479C224.162 22.0479 224.467 21.999 224.721 21.9014C224.98 21.7988 225.175 21.6621 225.307 21.4912C225.439 21.3154 225.505 21.1177 225.505 20.8979C225.505 20.6782 225.458 20.4878 225.366 20.3267C225.273 20.1655 225.095 20.0166 224.831 19.8799C224.567 19.7432 224.187 19.6235 223.688 19.521ZM231.774 18.7446C231.774 20.063 231.582 21.2568 231.196 22.3262C230.815 23.3906 230.349 24.2695 229.797 24.9629C229.245 25.6562 228.708 26.1494 228.186 26.4424L227.9 25.6294C228.32 25.312 228.72 24.8408 229.101 24.2158C229.482 23.5957 229.794 22.8218 230.039 21.894C230.288 20.9614 230.412 19.9165 230.412 18.7593V18.6494C230.412 17.502 230.283 16.4644 230.024 15.5366C229.765 14.604 229.445 13.8276 229.064 13.2075C228.684 12.5825 228.295 12.1089 227.9 11.7866L228.186 10.9663C228.708 11.2544 229.245 11.7476 229.797 12.4458C230.349 13.1392 230.815 14.0205 231.196 15.0898C231.582 16.1592 231.774 17.353 231.774 18.6714V18.7446Z" fill="#0F2137"/>
<path d="M8.09375 8.5625C8.21875 8.3125 8.375 8.15625 8.625 8.0625C8.875 8 9.09375 8 9.34375 8.0625C9.59375 8.15625 9.78125 8.3125 9.90625 8.5625L11.9375 12.6875L16.5 13.3438C16.75 13.4062 16.9688 13.5312 17.125 13.7188C17.2812 13.9375 17.3438 14.1562 17.3438 14.4062C17.3438 14.6562 17.25 14.875 17.0625 15.0625L13.75 18.2812L14.5312 22.8438C14.5625 23.0938 14.5 23.3438 14.375 23.5625C14.25 23.7812 14.0625 23.9062 13.8125 23.9688C13.5625 24.0312 13.3125 24 13.0938 23.875L9 21.75L4.90625 23.875C4.65625 24 4.4375 24.0312 4.1875 23.9688C3.9375 23.9062 3.71875 23.7812 3.59375 23.5625C3.46875 23.3438 3.40625 23.0938 3.46875 22.8438L4.25 18.2812L0.9375 15.0625C0.75 14.875 0.625 14.6562 0.625 14.4062C0.625 14.1562 0.6875 13.9375 0.84375 13.7188C1 13.5312 1.21875 13.4062 1.5 13.3438L6.0625 12.6875L8.09375 8.5625ZM30.8937 8.5625C31.0187 8.3125 31.175 8.15625 31.425 8.0625C31.675 8 31.8937 8 32.1437 8.0625C32.3937 8.15625 32.5812 8.3125 32.7062 8.5625L34.7375 12.6875L39.3 13.3438C39.55 13.4062 39.7687 13.5312 39.925 13.7188C40.0812 13.9375 40.1437 14.1562 40.1437 14.4062C40.1437 14.6562 40.05 14.875 39.8625 15.0625L36.55 18.2812L37.3312 22.8438C37.3625 23.0938 37.3 23.3438 37.175 23.5625C37.05 23.7812 36.8625 23.9062 36.6125 23.9688C36.3625 24.0312 36.1125 24 35.8937 23.875L31.8 21.75L27.7062 23.875C27.4562 24 27.2375 24.0312 26.9875 23.9688C26.7375 23.9062 26.5187 23.7812 26.3937 23.5625C26.2687 23.3438 26.2062 23.0938 26.2687 22.8438L27.05 18.2812L23.7375 15.0625C23.55 14.875 23.425 14.6562 23.425 14.4062C23.425 14.1562 23.4875 13.9375 23.6437 13.7188C23.8 13.5312 24.0187 13.4062 24.3 13.3438L28.8625 12.6875L30.8937 8.5625ZM53.6937 8.5625C53.8187 8.3125 53.975 8.15625 54.225 8.0625C54.475 8 54.6937 8 54.9437 8.0625C55.1937 8.15625 55.3812 8.3125 55.5062 8.5625L57.5375 12.6875L62.1 13.3438C62.35 13.4062 62.5687 13.5312 62.725 13.7188C62.8812 13.9375 62.9437 14.1562 62.9437 14.4062C62.9437 14.6562 62.85 14.875 62.6625 15.0625L59.35 18.2812L60.1312 22.8438C60.1625 23.0938 60.1 23.3438 59.975 23.5625C59.85 23.7812 59.6625 23.9062 59.4125 23.9688C59.1625 24.0312 58.9125 24 58.6937 23.875L54.6 21.75L50.5062 23.875C50.2562 24 50.0375 24.0312 49.7875 23.9688C49.5375 23.9062 49.3187 23.7812 49.1937 23.5625C49.0687 23.3438 49.0062 23.0938 49.0687 22.8438L49.85 18.2812L46.5375 15.0625C46.35 14.875 46.225 14.6562 46.225 14.4062C46.225 14.1562 46.2875 13.9375 46.4437 13.7188C46.6 13.5312 46.8187 13.4062 47.1 13.3438L51.6625 12.6875L53.6937 8.5625ZM76.4938 8.5625C76.6188 8.3125 76.775 8.15625 77.025 8.0625C77.275 8 77.4938 8 77.7438 8.0625C77.9938 8.15625 78.1813 8.3125 78.3063 8.5625L80.3375 12.6875L84.9 13.3438C85.15 13.4062 85.3688 13.5312 85.525 13.7188C85.6813 13.9375 85.7438 14.1562 85.7438 14.4062C85.7438 14.6562 85.65 14.875 85.4625 15.0625L82.15 18.2812L82.9313 22.8438C82.9625 23.0938 82.9 23.3438 82.775 23.5625C82.65 23.7812 82.4625 23.9062 82.2125 23.9688C81.9625 24.0312 81.7125 24 81.4938 23.875L77.4 21.75L73.3063 23.875C73.0563 24 72.8375 24.0312 72.5875 23.9688C72.3375 23.9062 72.1188 23.7812 71.9938 23.5625C71.8688 23.3438 71.8063 23.0938 71.8688 22.8438L72.65 18.2812L69.3375 15.0625C69.15 14.875 69.025 14.6562 69.025 14.4062C69.025 14.1562 69.0875 13.9375 69.2438 13.7188C69.4 13.5312 69.6188 13.4062 69.9 13.3438L74.4625 12.6875L76.4938 8.5625Z" fill="#FFCE1F"/>
<path d="M99.2937 8.5625C99.4187 8.3125 99.575 8.15625 99.825 8.0625C100.075 8 100.294 8 100.544 8.0625C100.794 8.15625 100.981 8.3125 101.106 8.5625L103.137 12.6875L107.7 13.3438C107.95 13.4062 108.169 13.5312 108.325 13.7188C108.481 13.9375 108.544 14.1562 108.544 14.4062C108.544 14.6562 108.45 14.875 108.262 15.0625L104.95 18.2812L105.731 22.8438C105.762 23.0938 105.7 23.3438 105.575 23.5625C105.45 23.7812 105.262 23.9062 105.012 23.9688C104.762 24.0312 104.512 24 104.294 23.875L100.2 21.75L96.1062 23.875C95.8562 24 95.6375 24.0312 95.3875 23.9688C95.1375 23.9062 94.9187 23.7812 94.7937 23.5625C94.6687 23.3438 94.6062 23.0938 94.6687 22.8438L95.45 18.2812L92.1375 15.0625C91.95 14.875 91.825 14.6562 91.825 14.4062C91.825 14.1562 91.8875 13.9375 92.0437 13.7188C92.2 13.5312 92.4187 13.4062 92.7 13.3438L97.2625 12.6875L99.2937 8.5625Z" fill="#F0ECDF"/>
</svg>
